<mxfile host="app.diagrams.net" modified="2024-05-20T23:48:22.737Z" agent="Mozilla/5.0 (Windows NT 10.0; Win64; x64) AppleWebKit/537.36 (KHTML, like Gecko) Chrome/124.0.0.0 Safari/537.36 Edg/124.0.0.0" etag="WhV8BeYeBNcuAEo3H0IW" version="24.4.4" type="github">
  <diagram id="C5RBs43oDa-KdzZeNtuy" name="Page-1">
    <mxGraphModel dx="826" dy="447" grid="1" gridSize="10" guides="1" tooltips="1" connect="1" arrows="1" fold="1" page="1" pageScale="1" pageWidth="827" pageHeight="1169" math="0" shadow="0">
      <root>
        <mxCell id="WIyWlLk6GJQsqaUBKTNV-0" />
        <mxCell id="WIyWlLk6GJQsqaUBKTNV-1" parent="WIyWlLk6GJQsqaUBKTNV-0" />
        <mxCell id="WIyWlLk6GJQsqaUBKTNV-3" value="Aluno" style="rounded=1;whiteSpace=wrap;html=1;fontSize=12;glass=0;strokeWidth=1;shadow=0;fillColor=#e1d5e7;strokeColor=#9673a6;" parent="WIyWlLk6GJQsqaUBKTNV-1" vertex="1">
          <mxGeometry x="130" y="60" width="120" height="40" as="geometry" />
        </mxCell>
        <mxCell id="WIyWlLk6GJQsqaUBKTNV-6" value="matriculado" style="rhombus;whiteSpace=wrap;html=1;shadow=0;fontFamily=Helvetica;fontSize=12;align=center;strokeWidth=1;spacing=6;spacingTop=-4;" parent="WIyWlLk6GJQsqaUBKTNV-1" vertex="1">
          <mxGeometry x="330" y="50" width="100" height="80" as="geometry" />
        </mxCell>
        <mxCell id="WIyWlLk6GJQsqaUBKTNV-7" value="Curso" style="rounded=1;whiteSpace=wrap;html=1;fontSize=12;glass=0;strokeWidth=1;shadow=0;fillColor=#e1d5e7;strokeColor=#9673a6;" parent="WIyWlLk6GJQsqaUBKTNV-1" vertex="1">
          <mxGeometry x="530" y="70" width="120" height="40" as="geometry" />
        </mxCell>
        <mxCell id="GtkZLF3a1ReEiGem8rHB-0" value="" style="endArrow=classic;html=1;rounded=0;exitX=1;exitY=0.5;exitDx=0;exitDy=0;fontStyle=1;entryX=0;entryY=0.5;entryDx=0;entryDy=0;" edge="1" parent="WIyWlLk6GJQsqaUBKTNV-1" source="WIyWlLk6GJQsqaUBKTNV-6" target="WIyWlLk6GJQsqaUBKTNV-7">
          <mxGeometry relative="1" as="geometry">
            <mxPoint x="300" y="175" as="sourcePoint" />
            <mxPoint x="300" y="245" as="targetPoint" />
          </mxGeometry>
        </mxCell>
        <mxCell id="GtkZLF3a1ReEiGem8rHB-1" value="(1, 1)" style="edgeLabel;resizable=0;html=1;;align=center;verticalAlign=middle;" connectable="0" vertex="1" parent="GtkZLF3a1ReEiGem8rHB-0">
          <mxGeometry relative="1" as="geometry" />
        </mxCell>
        <mxCell id="GtkZLF3a1ReEiGem8rHB-4" value="" style="endArrow=classic;html=1;rounded=0;exitX=1;exitY=0.75;exitDx=0;exitDy=0;fontStyle=1;entryX=0;entryY=0.5;entryDx=0;entryDy=0;" edge="1" parent="WIyWlLk6GJQsqaUBKTNV-1" source="WIyWlLk6GJQsqaUBKTNV-3" target="WIyWlLk6GJQsqaUBKTNV-6">
          <mxGeometry relative="1" as="geometry">
            <mxPoint x="219.5" y="100" as="sourcePoint" />
            <mxPoint x="219.5" y="170" as="targetPoint" />
          </mxGeometry>
        </mxCell>
        <mxCell id="GtkZLF3a1ReEiGem8rHB-5" value="(1, 1)" style="edgeLabel;resizable=0;html=1;;align=center;verticalAlign=middle;" connectable="0" vertex="1" parent="GtkZLF3a1ReEiGem8rHB-4">
          <mxGeometry relative="1" as="geometry" />
        </mxCell>
        <mxCell id="GtkZLF3a1ReEiGem8rHB-6" value="Disciplina" style="rounded=1;whiteSpace=wrap;html=1;fontSize=12;glass=0;strokeWidth=1;shadow=0;fillColor=#e1d5e7;strokeColor=#9673a6;" vertex="1" parent="WIyWlLk6GJQsqaUBKTNV-1">
          <mxGeometry x="330" y="300" width="120" height="40" as="geometry" />
        </mxCell>
        <mxCell id="GtkZLF3a1ReEiGem8rHB-7" value="" style="endArrow=classic;html=1;rounded=0;exitX=0.75;exitY=1;exitDx=0;exitDy=0;entryX=0;entryY=0.5;entryDx=0;entryDy=0;" edge="1" parent="WIyWlLk6GJQsqaUBKTNV-1" source="WIyWlLk6GJQsqaUBKTNV-3" target="GtkZLF3a1ReEiGem8rHB-9">
          <mxGeometry relative="1" as="geometry">
            <mxPoint x="210" y="180" as="sourcePoint" />
            <mxPoint x="310" y="210" as="targetPoint" />
          </mxGeometry>
        </mxCell>
        <mxCell id="GtkZLF3a1ReEiGem8rHB-8" value="(0,6)" style="edgeLabel;resizable=0;html=1;;align=center;verticalAlign=middle;" connectable="0" vertex="1" parent="GtkZLF3a1ReEiGem8rHB-7">
          <mxGeometry relative="1" as="geometry" />
        </mxCell>
        <mxCell id="GtkZLF3a1ReEiGem8rHB-9" value="Possui" style="rhombus;whiteSpace=wrap;html=1;shadow=0;fontFamily=Helvetica;fontSize=12;align=center;strokeWidth=1;spacing=6;spacingTop=-4;" vertex="1" parent="WIyWlLk6GJQsqaUBKTNV-1">
          <mxGeometry x="330" y="160" width="100" height="80" as="geometry" />
        </mxCell>
        <mxCell id="GtkZLF3a1ReEiGem8rHB-15" value="" style="endArrow=classic;html=1;rounded=0;entryX=0.175;entryY=-0.025;entryDx=0;entryDy=0;entryPerimeter=0;exitX=0.2;exitY=0.675;exitDx=0;exitDy=0;exitPerimeter=0;" edge="1" parent="WIyWlLk6GJQsqaUBKTNV-1" source="GtkZLF3a1ReEiGem8rHB-9" target="GtkZLF3a1ReEiGem8rHB-6">
          <mxGeometry relative="1" as="geometry">
            <mxPoint x="345" y="214" as="sourcePoint" />
            <mxPoint x="340" y="270" as="targetPoint" />
          </mxGeometry>
        </mxCell>
        <mxCell id="GtkZLF3a1ReEiGem8rHB-16" value="(0,n)" style="edgeLabel;resizable=0;html=1;;align=center;verticalAlign=middle;" connectable="0" vertex="1" parent="GtkZLF3a1ReEiGem8rHB-15">
          <mxGeometry relative="1" as="geometry" />
        </mxCell>
        <mxCell id="GtkZLF3a1ReEiGem8rHB-19" value="" style="endArrow=classic;html=1;rounded=0;entryX=1;entryY=0.5;entryDx=0;entryDy=0;exitX=0.333;exitY=1;exitDx=0;exitDy=0;exitPerimeter=0;" edge="1" parent="WIyWlLk6GJQsqaUBKTNV-1" source="WIyWlLk6GJQsqaUBKTNV-7" target="GtkZLF3a1ReEiGem8rHB-9">
          <mxGeometry relative="1" as="geometry">
            <mxPoint x="490" y="160" as="sourcePoint" />
            <mxPoint x="590" y="160" as="targetPoint" />
          </mxGeometry>
        </mxCell>
        <mxCell id="GtkZLF3a1ReEiGem8rHB-20" value="(1,n)" style="edgeLabel;resizable=0;html=1;;align=center;verticalAlign=middle;" connectable="0" vertex="1" parent="GtkZLF3a1ReEiGem8rHB-19">
          <mxGeometry relative="1" as="geometry" />
        </mxCell>
        <mxCell id="GtkZLF3a1ReEiGem8rHB-21" value="" style="endArrow=classic;html=1;rounded=0;entryX=0.75;entryY=0;entryDx=0;entryDy=0;" edge="1" parent="WIyWlLk6GJQsqaUBKTNV-1" target="GtkZLF3a1ReEiGem8rHB-6">
          <mxGeometry relative="1" as="geometry">
            <mxPoint x="420" y="210" as="sourcePoint" />
            <mxPoint x="416" y="290" as="targetPoint" />
          </mxGeometry>
        </mxCell>
        <mxCell id="GtkZLF3a1ReEiGem8rHB-22" value="(1,n)" style="edgeLabel;resizable=0;html=1;;align=center;verticalAlign=middle;" connectable="0" vertex="1" parent="GtkZLF3a1ReEiGem8rHB-21">
          <mxGeometry relative="1" as="geometry" />
        </mxCell>
        <mxCell id="GtkZLF3a1ReEiGem8rHB-23" value="&#xa;&lt;span style=&quot;color: rgba(0, 0, 0, 0); font-family: monospace; font-size: 0px; font-style: normal; font-variant-ligatures: normal; font-variant-caps: normal; font-weight: 400; letter-spacing: normal; orphans: 2; text-align: start; text-indent: 0px; text-transform: none; widows: 2; word-spacing: 0px; -webkit-text-stroke-width: 0px; white-space: nowrap; background-color: rgb(251, 251, 251); text-decoration-thickness: initial; text-decoration-style: initial; text-decoration-color: initial; display: inline !important; float: none;&quot;&gt;%3CmxGraphModel%3E%3Croot%3E%3CmxCell%20id%3D%220%22%2F%3E%3CmxCell%20id%3D%221%22%20parent%3D%220%22%2F%3E%3CmxCell%20id%3D%222%22%20value%3D%22%22%20style%3D%22endArrow%3Dclassic%3Bhtml%3D1%3Brounded%3D0%3BentryX%3D0. 5%3BentryY%3D0%3BentryDx%3D0%3BentryDy%3D0%3B%22%20edge%3D%221%22%20parent%3D%221%22%3E%3CmxGeometry%20relative%3D%221%22%20as%3D%22geometry%22%3E%3CmxPoint%20x%3D%22340%22%20y%3D%22340%22%200%20%20 como%3D%22sourcePoint%22%2F%3E%3CmxPoint%20x%3D%22285%22%20y%3D%22420%22%20as%3D%22targetPoint%22%2F%3E%3C%2FmxGeometry%3E%3C%2FmxCell%3E%3CmxCell%20id%3D%223%22%20value%3D%22(1%2C1)%22% 20style%3D%22edgeLabel%3Bresizable%3D0%3Bhtml%3D1%3B%3Balign%3Dcenter%3BverticalAlign%3Dmiddle%3B%22%20connectable%3D%220%22%20vertex%3D%221%22%20parent%3D%222%22%3E%3CmxGeometry%20relative%3D%221%22%20as%3D%22geometry%22%2F%3E%3C%2FmxCell%3E%3C%2Froot%3E%3C%2FmxGraphModel%3E" style="endArrow=classic;html=1;rounded=0;entryX=0.5;entryY=0;entryDx=0;entryDy=0;" edge="1" parent="WIyWlLk6GJQsqaUBKTNV-1" target="GtkZLF3a1ReEiGem8rHB-29">
          <mxGeometry relative="1" as="geometry">
            <mxPoint x="340" y="340" as="sourcePoint" />
            <mxPoint x="290" y="420" as="targetPoint" />
          </mxGeometry>
        </mxCell>
        <mxCell id="GtkZLF3a1ReEiGem8rHB-24" value="(1,1)" style="edgeLabel;resizable=0;html=1;;align=center;verticalAlign=middle;" connectable="0" vertex="1" parent="GtkZLF3a1ReEiGem8rHB-23">
          <mxGeometry relative="1" as="geometry" />
        </mxCell>
        <mxCell id="GtkZLF3a1ReEiGem8rHB-25" value="" style="endArrow=classic;html=1;rounded=0;" edge="1" parent="WIyWlLk6GJQsqaUBKTNV-1">
          <mxGeometry relative="1" as="geometry">
            <mxPoint x="439" y="340" as="sourcePoint" />
            <mxPoint x="480" y="410" as="targetPoint" />
          </mxGeometry>
        </mxCell>
        <mxCell id="GtkZLF3a1ReEiGem8rHB-26" value="Label" style="edgeLabel;resizable=0;html=1;;align=center;verticalAlign=middle;" connectable="0" vertex="1" parent="GtkZLF3a1ReEiGem8rHB-25">
          <mxGeometry relative="1" as="geometry" />
        </mxCell>
        <mxCell id="GtkZLF3a1ReEiGem8rHB-28" style="edgeStyle=orthogonalEdgeStyle;rounded=0;orthogonalLoop=1;jettySize=auto;html=1;exitX=0;exitY=0.5;exitDx=0;exitDy=0;" edge="1" parent="WIyWlLk6GJQsqaUBKTNV-1">
          <mxGeometry relative="1" as="geometry">
            <mxPoint x="290" y="480" as="sourcePoint" />
            <mxPoint x="290" y="480" as="targetPoint" />
          </mxGeometry>
        </mxCell>
        <mxCell id="GtkZLF3a1ReEiGem8rHB-29" value="Pertence" style="rhombus;whiteSpace=wrap;html=1;shadow=0;fontFamily=Helvetica;fontSize=12;align=center;strokeWidth=1;spacing=6;spacingTop=-4;" vertex="1" parent="WIyWlLk6GJQsqaUBKTNV-1">
          <mxGeometry x="220" y="420" width="70" height="50" as="geometry" />
        </mxCell>
        <mxCell id="GtkZLF3a1ReEiGem8rHB-30" value="&#xa;&lt;span style=&quot;color: rgba(0, 0, 0, 0); font-family: monospace; font-size: 0px; font-style: normal; font-variant-ligatures: normal; font-variant-caps: normal; font-weight: 400; letter-spacing: normal; orphans: 2; text-align: start; text-indent: 0px; text-transform: none; widows: 2; word-spacing: 0px; -webkit-text-stroke-width: 0px; white-space: nowrap; background-color: rgb(251, 251, 251); text-decoration-thickness: initial; text-decoration-style: initial; text-decoration-color: initial; display: inline !important; float: none;&quot;&gt;%3CmxGraphModel%3E%3Croot%3E%3CmxCell%20id%3D%220%22%2F%3E%3CmxCell%20id%3D%221%22%20parent%3D%220%22%2F%3E%3CmxCell%20id%3D%222%22%20value%3D%22%22%20style%3D%22endArrow%3Dclassic%3Bhtml%3D1%3Brounded%3D0%3BentryX%3D0. 5%3BentryY%3D0%3BentryDx%3D0%3BentryDy%3D0%3B%22%20edge%3D%221%22%20parent%3D%221%22%3E%3CmxGeometry%20relative%3D%221%22%20as%3D%22geometry%22%3E%3CmxPoint%20x%3D%22340%22%20y%3D%22340%22%200%20%20 como%3D%22sourcePoint%22%2F%3E%3CmxPoint%20x%3D%22285%22%20y%3D%22420%22%20as%3D%22targetPoint%22%2F%3E%3C%2FmxGeometry%3E%3C%2FmxCell%3E%3CmxCell%20id%3D%223%22%20value%3D%22(1%2C1)%22% 20style%3D%22edgeLabel%3Bresizable%3D0%3Bhtml%3D1%3B%3Balign%3Dcenter%3BverticalAlign%3Dmiddle%3B%22%20connectable%3D%220%22%20vertex%3D%221%22%20parent%3D%222%22%3E%3CmxGeometry%20relative%3D%221%22%20as%3D%22geometry%22%2F%3E%3C%2FmxCell%3E%3C%2Froot%3E%3C%2FmxGraphModel%3E" style="endArrow=classic;html=1;rounded=0;entryX=1;entryY=0.5;entryDx=0;entryDy=0;" edge="1" parent="WIyWlLk6GJQsqaUBKTNV-1" source="GtkZLF3a1ReEiGem8rHB-29" target="GtkZLF3a1ReEiGem8rHB-32">
          <mxGeometry relative="1" as="geometry">
            <mxPoint x="180" y="630" as="sourcePoint" />
            <mxPoint x="230" y="550" as="targetPoint" />
          </mxGeometry>
        </mxCell>
        <mxCell id="GtkZLF3a1ReEiGem8rHB-31" value="(1,1)" style="edgeLabel;resizable=0;html=1;;align=center;verticalAlign=middle;" connectable="0" vertex="1" parent="GtkZLF3a1ReEiGem8rHB-30">
          <mxGeometry relative="1" as="geometry" />
        </mxCell>
        <mxCell id="GtkZLF3a1ReEiGem8rHB-32" value="Aluno" style="rounded=1;whiteSpace=wrap;html=1;fontSize=12;glass=0;strokeWidth=1;shadow=0;fillColor=#e1d5e7;strokeColor=#9673a6;" vertex="1" parent="WIyWlLk6GJQsqaUBKTNV-1">
          <mxGeometry x="10" y="425" width="120" height="40" as="geometry" />
        </mxCell>
        <mxCell id="GtkZLF3a1ReEiGem8rHB-33" value="" style="endArrow=classic;html=1;rounded=0;entryX=0.175;entryY=-0.025;entryDx=0;entryDy=0;entryPerimeter=0;exitX=0.5;exitY=1;exitDx=0;exitDy=0;" edge="1" parent="WIyWlLk6GJQsqaUBKTNV-1" source="GtkZLF3a1ReEiGem8rHB-29">
          <mxGeometry relative="1" as="geometry">
            <mxPoint x="274.5" y="480" as="sourcePoint" />
            <mxPoint x="275.5" y="565" as="targetPoint" />
          </mxGeometry>
        </mxCell>
        <mxCell id="GtkZLF3a1ReEiGem8rHB-34" value="(0,n)" style="edgeLabel;resizable=0;html=1;;align=center;verticalAlign=middle;" connectable="0" vertex="1" parent="GtkZLF3a1ReEiGem8rHB-33">
          <mxGeometry relative="1" as="geometry" />
        </mxCell>
      </root>
    </mxGraphModel>
  </diagram>
</mxfile>
